<svg xmlns="http://www.w3.org/2000/svg" version="1.1" xmlns:xlink="http://www.w3.org/1999/xlink" xmlns:svgjs="http://svgjs.dev/svgjs" width="1440" height="560" preserveAspectRatio="none" viewBox="0 0 1440 560"><g mask="url(&quot;#SvgjsMask1211&quot;)" fill="none"><rect width="1440" height="560" x="0" y="0" fill="rgba(77, 194, 71, 1)"></rect><path d="M1440 0L1110.25 0L1440 56.06z" fill="rgba(255, 255, 255, .1)"></path><path d="M1110.25 0L1440 56.06L1440 190.93L835.46 0z" fill="rgba(255, 255, 255, .075)"></path><path d="M835.46 0L1440 190.93L1440 325.61L824.2900000000001 0z" fill="rgba(255, 255, 255, .05)"></path><path d="M824.2900000000001 0L1440 325.61L1440 332.34000000000003L484.63000000000005 0z" fill="rgba(255, 255, 255, .025)"></path><path d="M0 560L481.49 560L0 412.21000000000004z" fill="rgba(0, 0, 0, .1)"></path><path d="M0 412.21000000000004L481.49 560L968.04 560L0 198.74000000000004z" fill="rgba(0, 0, 0, .075)"></path><path d="M0 198.74L968.04 560L1049.4099999999999 560L0 179.77z" fill="rgba(0, 0, 0, .05)"></path><path d="M0 179.76999999999998L1049.4099999999999 560L1312.8799999999999 560L0 134.71999999999997z" fill="rgba(0, 0, 0, .025)"></path></g><defs><mask id="SvgjsMask1211"><rect width="1440" height="560" fill="#ffffff"></rect></mask></defs></svg>